<?xml version="1.0" standalone="no"?><!DOCTYPE svg PUBLIC "-//W3C//DTD SVG 1.1//EN" "http://www.w3.org/Graphics/SVG/1.1/DTD/svg11.dtd"><svg t="1574950186454" class="icon" viewBox="0 0 1024 1024" version="1.1" xmlns="http://www.w3.org/2000/svg" p-id="2737" xmlns:xlink="http://www.w3.org/1999/xlink" width="200" height="200"><defs><style type="text/css"></style></defs><path d="M312.56325 61.85579c15.286148 0 29.522384 5.878894 40.166815 16.564257l389.69649 390.391315c1.425466 1.39272 2.537799 2.577708 3.449565 3.846608l2.304486 2.905166c11.362792 11.416004 16.945951 24.848944 16.945951 39.068807 0 14.475689-5.708002 28.010961-16.056698 38.110993L356.692307 940.958702c-10.612709 10.467399-24.785499 16.236799-39.892569 16.236799-14.772448 0-28.726252-5.599532-39.287795-15.753799-10.497075-10.18599-16.538675-24.390503-16.538675-38.95215 0-14.382569 5.722328-28.009937 16.142655-38.366819l353.968777-350.170265L272.59905 154.524352c-10.249435-10.30981-15.909341-23.781636-15.909341-37.994336 0-14.889105 6.051833-28.859281 17.000186-39.333844C284.109198 67.306942 297.939181 61.85579 312.56325 61.85579z" p-id="2738" fill="#dbdbdb"></path></svg>