<?xml version="1.0" standalone="no"?><!DOCTYPE svg PUBLIC "-//W3C//DTD SVG 1.1//EN" "http://www.w3.org/Graphics/SVG/1.1/DTD/svg11.dtd"><svg t="1574998093731" class="icon" viewBox="0 0 1056 1024" version="1.1" xmlns="http://www.w3.org/2000/svg" p-id="1553" xmlns:xlink="http://www.w3.org/1999/xlink" width="206.25" height="200"><defs><style type="text/css"></style></defs><path d="M489.72845 32.177681c20.819595-42.896749 54.843563-42.896749 75.663157 0l100.150633 206.519198c20.819595 42.896749 75.907682 83.6277 122.43738 90.509344l223.950369 33.11573c46.529697 6.881645 57.044292 39.857647 23.369645 73.252835l-162.050501 160.723077c-33.674646 33.395188-54.703833 99.31226-46.774223 146.435805l38.250765 226.989471c7.964543 47.158477-19.596967 67.523953-61.201224 45.237206l-200.336198-107.172006c-41.604257-22.251815-109.722057-22.251815-151.326314 0l-200.336198 107.172006c-41.604257 22.286747-69.165767 1.921271-61.201224-45.237206l38.250765-226.989471c7.964543-47.123545-13.099578-113.040617-46.774223-146.435805l-162.085434-160.723077c-33.674646-33.395188-23.12512-66.336258 23.369645-73.252835l223.985301-33.11573c46.529697-6.881645 101.617786-47.612596 122.43738-90.509344L489.72845 32.177681z" p-id="1554" fill="#e6e6e6"></path></svg>