<?xml version="1.0" standalone="no"?><!DOCTYPE svg PUBLIC "-//W3C//DTD SVG 1.1//EN" "http://www.w3.org/Graphics/SVG/1.1/DTD/svg11.dtd"><svg t="1575082008592" class="icon" viewBox="0 0 1024 1024" version="1.1" xmlns="http://www.w3.org/2000/svg" p-id="2360" xmlns:xlink="http://www.w3.org/1999/xlink" width="128" height="128"><defs><style type="text/css"></style></defs><path d="M720.29989 344.90849c3.38699 0 6.209482 0 9.596472 0C697.719956 203.219405 548.127894 95.964719 368.052922 95.964719 164.833517 95.964719 0 232.573319 0 400.793826c0 99.351709 57.014333 187.413451 145.640573 242.734289l-36.692393 111.770673 131.528115-68.868798c39.514884 12.418964 82.981257 18.628445 127.576626 18.628445 9.596472 0 19.192944-0.564498 28.224917-1.128997-7.902977-24.273429-12.418964-50.240353-12.418964-76.207277C383.858875 471.920617 534.579934 344.90849 720.29989 344.90849zM493.936053 245.556781c26.531422 0 47.982359 22.015436 47.982359 48.546858 0 27.095921-21.450937 48.546858-47.982359 48.546858S445.953693 321.199559 445.953693 294.103638C445.953693 267.572216 467.404631 245.556781 493.936053 245.556781zM239.911797 342.650496c-26.531422 0-47.982359-22.015436-47.982359-48.546858 0-27.095921 21.450937-48.546858 47.982359-48.546858s47.982359 22.015436 47.982359 48.546858C287.894157 321.199559 266.443219 342.650496 239.911797 342.650496z" p-id="2361" fill="#139d34"></path><path d="M1024 628.286659c0-141.689085-136.044101-256.846748-304.264609-256.846748-167.656009 0-304.264609 115.157663-304.264609 256.846748s136.044101 256.846748 304.264609 256.846748c35.563396 0 69.997795-5.080485 102.174201-14.676957l102.174201 57.578831-27.660419-90.319735C973.759647 790.862183 1024 714.654906 1024 628.286659zM620.948181 585.384785c-22.015436 0-40.079383-16.370452-40.079383-36.127894 0-19.757442 18.063947-36.127894 40.079383-36.127894s40.079383 16.370452 40.079383 36.127894C661.027563 569.578831 642.963616 585.384785 620.948181 585.384785zM820.216097 585.384785c-22.015436 0-40.079383-16.370452-40.079383-36.127894 0-19.757442 18.063947-36.127894 40.079383-36.127894s40.079383 16.370452 40.079383 36.127894C860.29548 569.578831 842.231533 585.384785 820.216097 585.384785z" p-id="2362" fill="#139d34"></path></svg>