<?xml version="1.0" standalone="no"?><!DOCTYPE svg PUBLIC "-//W3C//DTD SVG 1.1//EN" "http://www.w3.org/Graphics/SVG/1.1/DTD/svg11.dtd"><svg t="1575548496325" class="icon" viewBox="0 0 1024 1024" version="1.1" xmlns="http://www.w3.org/2000/svg" p-id="3350" xmlns:xlink="http://www.w3.org/1999/xlink" width="128" height="128"><defs><style type="text/css"></style></defs><path d="M646.4 202.666667c-25.6-19.2-55.466667-23.466667-85.333333-12.8l-251.733334 125.866666c-19.2 6.4-34.133333 19.2-44.8 34.133334-12.8-4.266667-27.733333-8.533333-49.066666-8.533334H187.733333c-49.066667 0-87.466667 40.533333-87.466666 91.733334v217.6c0 51.2 38.4 91.733333 87.466666 91.733333h27.733334c21.333333 0 36.266667-2.133333 49.066666-8.533333 10.666667 14.933333 25.6 25.6 42.666667 32L554.666667 881.066667h2.133333c10.666667 4.266667 23.466667 6.4 34.133333 6.4 19.2 0 38.4-6.4 53.333334-17.066667 29.866667-21.333333 46.933333-55.466667 46.933333-96V296.533333c2.133333-38.4-14.933333-74.666667-44.8-93.866666z m-405.333333 467.2v4.266666c-2.133333 0-8.533333 2.133333-23.466667 2.133334H187.733333c-12.8 0-23.466667-12.8-23.466666-27.733334V430.933333c0-14.933333 10.666667-27.733333 23.466666-27.733333h27.733334c17.066667 0 23.466667 2.133333 23.466666 2.133333V659.2c2.133333 4.266667 2.133333 6.4 2.133334 10.666667z m388.266666 106.666666c0 17.066667-8.533333 34.133333-19.2 42.666667-6.4 4.266667-14.933333 8.533333-27.733333 4.266667l-247.466667-117.333334h-2.133333c-17.066667-6.4-27.733333-25.6-27.733333-46.933333V420.266667c0-21.333333 12.8-40.533333 27.733333-46.933334l251.733333-125.866666c10.666667-2.133333 19.2 2.133333 25.6 4.266666 12.8 8.533333 19.2 23.466667 19.2 42.666667v482.133333zM776.533333 375.466667c6.4 4.266667 12.8 6.4 19.2 6.4 10.666667 0 19.2-4.266667 25.6-12.8l81.066667-110.933334c10.666667-14.933333 6.4-34.133333-6.4-44.8-14.933333-10.666667-34.133333-6.4-44.8 6.4L768 330.666667c-8.533333 14.933333-6.4 34.133333 8.533333 44.8zM821.333333 733.866667c-10.666667-14.933333-29.866667-17.066667-44.8-6.4-14.933333 10.666667-17.066667 29.866667-6.4 44.8l81.066667 110.933333c6.4 8.533333 14.933333 12.8 25.6 12.8 6.4 0 12.8-2.133333 19.2-6.4 14.933333-10.666667 17.066667-29.866667 6.4-44.8l-81.066667-110.933333zM891.733333 514.133333H789.333333c-17.066667 0-32 14.933333-32 32s14.933333 32 32 32h102.4c17.066667 0 32-14.933333 32-32s-12.8-32-32-32z" p-id="3351" fill="#ffffff"></path></svg>