<?xml version="1.0" standalone="no"?><!DOCTYPE svg PUBLIC "-//W3C//DTD SVG 1.1//EN" "http://www.w3.org/Graphics/SVG/1.1/DTD/svg11.dtd"><svg t="1575551918289" class="icon" viewBox="0 0 1024 1024" version="1.1" xmlns="http://www.w3.org/2000/svg" p-id="1890" xmlns:xlink="http://www.w3.org/1999/xlink" width="128" height="128"><defs><style type="text/css"></style></defs><path d="M514.4 850.5c-13.3 0-25.9-5.2-35.3-14.5l-84-81.6H252.4c-27.4 0-52-9.6-69.5-27-17.4-17.4-27-42-27-69.3V275.6c0-27.7 9.6-53.2 27-71.7 17.8-19 42.5-29.4 69.5-29.4h521.3c27 0 51.6 10.5 69.4 29.4 17.4 18.5 26.9 44 26.9 71.7v382.5c0 27.3-9.6 51.9-27 69.3s-42 27-69.3 27H632.3l-82.4 81.4c-9.6 9.5-22.2 14.7-35.5 14.7z m-262-626c-27.4 0-46.5 21-46.5 51.1v382.5c0 29 17.4 46.3 46.5 46.3h152.8c6.5 0 12.8 2.5 17.4 7.1l91.4 88.8c0.1 0.1 0.2 0.2 0.3 0.2h0.1c0.1 0 0.3-0.1 0.4-0.3l89.7-88.6c4.7-4.6 11-7.2 17.6-7.2h151.6c29 0 46.3-17.3 46.3-46.3V275.6c0-30.1-19-51.1-46.3-51.1H252.4z m97.5 206.7c-24.2 0-43.9 19.6-43.9 43.9 0 24.2 19.6 43.9 43.9 43.9 24.2 0 43.9-19.6 43.9-43.9 0-24.3-19.7-43.9-43.9-43.9z m156.3 0c-24.2 0-43.9 19.6-43.9 43.9 0 24.2 19.6 43.9 43.9 43.9 24.2 0 43.9-19.6 43.9-43.9 0-24.3-19.7-43.9-43.9-43.9zM462.3 475v10.8V475z m199.2-44.4c-24.2 0-43.9 19.6-43.9 43.9 0 24.2 19.6 43.9 43.9 43.9 24.2 0 43.9-19.6 43.9-43.9 0-24.3-19.7-43.9-43.9-43.9z m-43.9 43.9z" p-id="1891"></path></svg>