<?xml version="1.0" standalone="no"?><!DOCTYPE svg PUBLIC "-//W3C//DTD SVG 1.1//EN" "http://www.w3.org/Graphics/SVG/1.1/DTD/svg11.dtd"><svg t="1575464172719" class="icon" viewBox="0 0 1024 1024" version="1.1" xmlns="http://www.w3.org/2000/svg" p-id="1890" xmlns:xlink="http://www.w3.org/1999/xlink" width="128" height="128"><defs><style type="text/css"></style></defs><path d="M511.991 828.404h-70.314L248.331 933.875V740.529C151.95 672.87 90.125 575.766 90.125 459.256c0-203.858 188.88-369.131 421.866-369.131s421.866 165.273 421.866 369.13c0.018 203.894-188.863 369.149-421.866 369.149z m0-685.561c-203.858 0-369.166 141.665-369.166 316.413 0 107.229 63.054 206.442 158.242 263.66V840.11L441.66 775.67h70.314c203.857 0 369.166-141.665 369.166-316.413 0.017-174.766-165.291-316.413-369.149-316.413z m210.96 369.148c-29.145 0-52.753-23.608-52.753-52.753s23.608-52.753 52.753-52.753c29.11 0 52.718 23.608 52.718 52.753s-23.608 52.753-52.718 52.753z m-210.96 0c-29.145 0-52.753-23.608-52.753-52.753s23.608-52.753 52.753-52.753 52.753 23.608 52.753 52.753-23.608 52.753-52.753 52.753z m-210.942 0c-29.11 0-52.718-23.608-52.718-52.735s23.608-52.753 52.718-52.753c29.145 0 52.753 23.608 52.753 52.753s-23.625 52.735-52.753 52.735z" p-id="1891"></path></svg>