<?xml version="1.0" standalone="no"?><!DOCTYPE svg PUBLIC "-//W3C//DTD SVG 1.1//EN" "http://www.w3.org/Graphics/SVG/1.1/DTD/svg11.dtd"><svg t="1575548305497" class="icon" viewBox="0 0 1024 1024" version="1.1" xmlns="http://www.w3.org/2000/svg" p-id="2535" xmlns:xlink="http://www.w3.org/1999/xlink" width="128" height="128"><defs><style type="text/css"></style></defs><path d="M812.445 238.275l90.135-90.135c7.111-7.111 7.111-18.64 0-25.752-7.113-7.111-18.641-7.111-25.754 0l-90.133 90.137c-7.113 7.111-7.113 18.64 0 25.751 7.111 7.112 18.641 7.112 25.752-0.001z m-186.329-94.363s-209.523 218.52-303.961 218.52h-96.654c-85.49 0.137-155.042 79.082-155.024 163.84C70.495 611.758 140.015 672 225.501 672h90.871c96.846 0 309.744 236.728 309.744 236.728 102.482 0 118.364-296.923 118.364-382.409 0-85.484-10.652-383.715-118.364-382.407z m9.107 728.396S416.825 634.247 342.326 634.247H226.2c-65.758 0-119.063-43.292-119.063-107.928 0-64.634 53.306-126.134 119.063-126.134h120.575c72.645 0 288.448-219.853 288.448-219.853 58.175-1.307 72.839 281.353 72.839 345.987 0.001 64.636-18.371 347.297-72.839 345.989z m309.568-364.199h-91.049c-10.057 0-18.212 8.153-18.212 18.21s8.154 18.212 18.212 18.212h91.049c10.057 0 18.21-8.154 18.21-18.212s-8.153-18.21-18.21-18.21zM812.445 814.363c-7.111-7.111-18.641-7.111-25.752 0-7.113 7.113-7.113 18.643 0 25.752l90.133 90.135c7.113 7.113 18.641 7.113 25.754 0 7.111-7.111 7.111-18.64 0-25.752l-90.135-90.135z" p-id="2536"></path></svg>