<?xml version="1.0" standalone="no"?><!DOCTYPE svg PUBLIC "-//W3C//DTD SVG 1.1//EN" "http://www.w3.org/Graphics/SVG/1.1/DTD/svg11.dtd"><svg t="1575599419780" class="icon" viewBox="0 0 1024 1024" version="1.1" xmlns="http://www.w3.org/2000/svg" p-id="4021" xmlns:xlink="http://www.w3.org/1999/xlink" width="128" height="128"><defs><style type="text/css"></style></defs><path d="M136.533333 149.333333h738.133334c46.933333 0 85.333333 38.4 85.333333 85.333334v482.133333c0 46.933333-38.4 85.333333-85.333333 85.333333H136.533333c-46.933333 0-85.333333-38.4-85.333333-85.333333V234.666667c0-46.933333 38.4-85.333333 85.333333-85.333334z" fill="#FFDA00" p-id="4022"></path><path d="M947.2 337.066667h-285.866667V162.133333c0-12.8-8.533333-21.333333-21.333333-21.333333s-21.333333 8.533333-21.333333 21.333333v337.066667L512 422.4c-8.533333-4.266667-17.066667-4.266667-25.6 0l-93.866667 72.533333V162.133333c0-12.8-8.533333-21.333333-21.333333-21.333333s-21.333333 8.533333-21.333333 21.333333V341.333333H72.533333c-12.8 0-21.333333 8.533333-21.333333 21.333334s8.533333 21.333333 21.333333 21.333333h277.333334v153.6c0 8.533333 4.266667 17.066667 12.8 17.066667 4.266667 0 4.266667 4.266667 8.533333 4.266666s8.533333 0 12.8-4.266666l115.2-89.6 123.733333 89.6c8.533333 4.266667 17.066667 4.266667 21.333334 0 8.533333-4.266667 12.8-12.8 12.8-17.066667V379.733333h285.866666c12.8 0 21.333333-8.533333 21.333334-21.333333s-8.533333-21.333333-17.066667-21.333333z" fill="#111111" p-id="4023"></path></svg>