<?xml version="1.0" standalone="no"?><!DOCTYPE svg PUBLIC "-//W3C//DTD SVG 1.1//EN" "http://www.w3.org/Graphics/SVG/1.1/DTD/svg11.dtd"><svg t="1575960059633" class="icon" viewBox="0 0 1024 1024" version="1.1" xmlns="http://www.w3.org/2000/svg" p-id="3551" xmlns:xlink="http://www.w3.org/1999/xlink" width="128" height="128"><defs><style type="text/css"></style></defs><path d="M891.4 186c-43.7-45.2-102.2-70-164.9-70-62.6 0-121.1 24.8-164.7 69.8l-50.4 45.5-50.4-45.5c-43.5-45-102-69.8-164.5-69.8-62.6 0-121.2 24.9-164.8 70C88 231.1 64 291.5 64 356.2c0 64.7 24 125.1 67.6 170.3l379.9 392.7 153-158.2-0.1-0.1c7-7.3 11.3-17.3 11.3-28.2 0-22.6-18.3-40.9-40.9-40.9-12.8 0-24.3 5.9-31.8 15.2l-87.8 90.7-319-329.8c-55.6-61.3-55.6-157.9-0.1-215.4l0.1-0.1c26.3-29 61.9-45.4 100.2-46 40.1-0.6 78.3 15.7 107.7 46.1l111 104.5L626 252.7l0.3-0.3c26.3-29 61.9-45.4 100.2-46 40-0.7 78.3 15.7 107.7 46.1 55.6 61.3 55.6 157.9 0.1 215.4L726.9 579l-7.9 8.2-3.3 3.4c-9.1 7.5-15 18.9-15 31.6 0 22.6 18.3 40.9 40.9 40.9 12.4 0 23.4-5.5 30.9-14.2l0.2 0.2 118.6-122.6c43.6-45.1 67.6-105 67.6-168.8C959 294 935 233.1 891.4 186z" p-id="3552" fill="#d4237a"></path></svg>