<?xml version="1.0" standalone="no"?><!DOCTYPE svg PUBLIC "-//W3C//DTD SVG 1.1//EN" "http://www.w3.org/Graphics/SVG/1.1/DTD/svg11.dtd"><svg t="1575960094313" class="icon" viewBox="0 0 1024 1024" version="1.1" xmlns="http://www.w3.org/2000/svg" p-id="4519" xmlns:xlink="http://www.w3.org/1999/xlink" width="128" height="128"><defs><style type="text/css"></style></defs><path d="M815.424 0 208.554667 0C93.504 0 0 93.568 0 208.576l0 606.848C0 930.410667 93.504 1024 208.554667 1024l606.848 0C930.389333 1024 1024 930.410667 1024 815.445333L1024 208.576C1024 93.568 930.389333 0 815.424 0zM815.424 910.165333 208.554667 910.165333c-52.309333 0-94.826667-42.453333-94.826667-94.72L113.728 264.362667c60.330667 59.605333 153.984 130.752 275.050667 156.394667-7.978667-17.301333-12.544-36.458667-12.544-56.746667 0-11.52 1.578667-22.634667 4.288-33.301333C257.728 295.104 169.258667 203.093333 130.048 155.477333c17.066667-25.152 45.866667-41.728 78.506667-41.728l606.848 0c23.978667 0 45.653333 9.258667 62.357333 24-80.618667 82.901333-160.938667 141.226667-240.32 174.421333 6.613333 15.978667 10.282667 33.450667 10.282667 51.818667 0 13.162667-1.984 25.834667-5.461333 37.888 89.749333-32 179.242667-91.072 267.861333-176.192l0 589.76C910.144 867.712 867.648 910.165333 815.424 910.165333z" p-id="4520" fill="#d4237a"></path><path d="M512 228.245333c-74.986667 0-135.765333 60.778667-135.765333 135.744s60.8 135.744 135.765333 135.744c74.965333 0 135.744-60.778667 135.744-135.744S586.965333 228.245333 512 228.245333zM550.549333 350.976c5.290667 0.490667 8.192 3.136 8.661333 7.978667-0.469333 4.842667-3.370667 7.488-8.661333 7.978667l-26.794667 0 0 12.309333 26.794667 0c5.290667 0.490667 8.192 3.136 8.661333 7.978667-0.469333 4.821333-3.370667 7.488-8.661333 7.957333l-26.794667 0 0 22.442667c-0.490667 8.213333-5.077333 12.309333-13.76 12.309333-8.682667 0-13.290667-4.096-13.76-12.309333l0-22.442667-26.773333 0c-5.312-0.469333-8.213333-3.136-8.682667-7.957333 0.469333-4.821333 3.370667-7.488 8.682667-7.978667l26.773333 0 0-12.309333-26.773333 0c-5.312-0.469333-8.213333-3.136-8.682667-7.978667 0.469333-4.821333 3.370667-7.488 8.682667-7.978667l15.189333 0-23.168-32.576c-1.92-2.410667-2.901333-5.077333-2.901333-7.978667 0.96-8.192 5.546667-12.778667 13.76-13.76 4.821333 0.490667 8.448 2.410667 10.858667 5.781333l26.773333 38.378667 26.773333-38.378667c2.410667-3.370667 6.037333-5.312 10.858667-5.781333 8.213333 0.96 12.8 5.546667 13.781333 13.76 0 2.901333-0.981333 5.568-2.901333 7.978667l-23.168 32.576L550.549333 350.976z" p-id="4521" fill="#d4237a"></path></svg>