<?xml version="1.0" standalone="no"?><!DOCTYPE svg PUBLIC "-//W3C//DTD SVG 1.1//EN" "http://www.w3.org/Graphics/SVG/1.1/DTD/svg11.dtd"><svg t="1575599558874" class="icon" viewBox="0 0 1024 1024" version="1.1" xmlns="http://www.w3.org/2000/svg" p-id="9092" xmlns:xlink="http://www.w3.org/1999/xlink" width="128" height="128"><defs><style type="text/css"></style></defs><path d="M855.04 827.392c0 16.384-6.599111 22.983111-22.983111 22.983111H651.491556c-7.850667 0-14.904889 3.185778-20.024889 8.305778l-88.291556 87.04-89.998222-87.267556c-5.688889-5.688889-13.198222-8.419556-20.593778-8.078222h-180.906667c-16.497778 0-23.210667-6.599111-23.210666-22.983111V401.521778c0-8.533333 2.275556-28.330667 23.210666-28.330667h580.380445c20.707556 0 22.983111 19.797333 22.983111 28.330667v425.870222z m0 0" fill="#A3A3A3" p-id="9093"></path><path d="M885.76 768.796444c0 16.384-6.599111 22.983111-22.983111 22.983112H682.211556c-7.850667 0-14.904889 3.185778-20.024889 8.305777l-88.291556 87.04-89.998222-87.267555c-5.688889-5.688889-13.198222-8.419556-20.593778-8.078222h-180.906667c-16.497778 0-23.210667-6.599111-23.210666-22.983112V342.926222c0-8.533333 2.275556-28.330667 23.210666-28.330666h580.380445c20.707556 0 22.983111 19.797333 22.983111 28.330666v425.870222z m0 0" fill="#FFD44D" p-id="9094"></path><path d="M599.381333 328.021333c-4.778667 0.113778-8.647111 3.982222-8.533333 8.874667 0.113778 4.778667 3.982222 8.647111 8.874667 8.533333 4.778667-0.113778 8.647111-3.982222 8.533333-8.874666-0.113778-4.778667-4.096-8.647111-8.874667-8.533334zM686.648889 343.950222c4.778667-0.113778 8.647111-3.982222 8.533333-8.874666-0.113778-4.778667-4.096-8.647111-8.874666-8.533334-4.778667 0.113778-8.647111 3.982222-8.533334 8.874667 0.113778 4.778667 3.982222 8.647111 8.874667 8.533333zM782.108444 333.710222c-0.113778-4.778667-4.096-8.647111-8.874666-8.533333-4.778667 0.113778-8.647111 3.982222-8.533334 8.874667 0.113778 4.778667 3.982222 8.647111 8.874667 8.533333 4.778667-0.113778 8.647111-4.096 8.533333-8.874667zM851.740444 332.572444c0.113778 4.778667 3.982222 8.647111 8.874667 8.533334 4.778667-0.113778 8.647111-3.982222 8.533333-8.874667-0.113778-4.778667-4.096-8.647111-8.874666-8.533333-4.778667 0.113778-8.647111 4.096-8.533334 8.874666zM645.006222 457.728c-4.778667 0.113778-8.647111 3.982222-8.533333 8.874667 0.113778 4.778667 3.982222 8.647111 8.874667 8.533333 4.778667-0.113778 8.647111-4.096 8.533333-8.874667-0.113778-4.778667-4.096-8.533333-8.874667-8.533333zM602.225778 501.987556c-4.778667 0.113778-8.647111 3.982222-8.533334 8.874666 0.113778 4.778667 3.982222 8.647111 8.874667 8.533334 4.778667-0.113778 8.647111-3.982222 8.533333-8.874667-0.113778-4.778667-4.096-8.647111-8.874666-8.533333zM689.493333 517.916444c4.778667-0.113778 8.647111-3.982222 8.533334-8.874666-0.113778-4.778667-4.096-8.647111-8.874667-8.533334-4.778667 0.113778-8.647111 3.982222-8.533333 8.874667 0.113778 4.778667 3.982222 8.647111 8.874666 8.533333zM600.746667 414.947556c-4.778667 0.113778-8.647111 3.982222-8.533334 8.874666 0.113778 4.778667 3.982222 8.647111 8.874667 8.533334 4.778667-0.113778 8.647111-3.982222 8.533333-8.874667-0.113778-4.778667-4.096-8.533333-8.874666-8.533333zM696.547556 422.115556c-0.113778-4.778667-4.096-8.647111-8.874667-8.533334-4.778667 0.113778-8.647111 3.982222-8.533333 8.874667 0.113778 4.778667 3.982222 8.647111 8.874666 8.533333 4.778667-0.113778 8.647111-4.096 8.533334-8.874666zM643.527111 370.801778c-4.778667 0.113778-8.647111 3.982222-8.533333 8.874666 0.113778 4.778667 3.982222 8.647111 8.874666 8.533334 4.778667-0.113778 8.647111-3.982222 8.533334-8.874667-0.113778-4.778667-4.096-8.647111-8.874667-8.533333zM562.744889 374.670222c-0.796444-0.796444-1.706667-1.365333-2.844445-1.820444-0.568889-0.227556-1.024-0.341333-1.592888-0.455111-0.568889-0.113778-1.137778-0.113778-1.706667-0.113778-0.341333 0-0.682667 0-1.024 0.113778-2.844444 0.341333-5.233778 2.161778-6.485333 4.551111-0.682667 1.251556-1.024 2.616889-1.024 4.209778 0 0.455111 0 0.796444 0.113777 1.251555 0.341333 1.934222 1.251556 3.527111 2.503111 4.892445 1.024 1.024 2.275556 1.706667 3.640889 2.048 0.113778 0 0.227556 0 0.341334 0.113777 0.227556 0.113778 0.455111 0.113778 0.682666 0.113778 0.455111 0.113778 1.024 0.113778 1.479111 0.113778 2.389333 0 4.551111-1.024 6.144-2.616889 1.592889-1.592889 2.503111-3.754667 2.389334-6.144 0-1.820444-0.568889-3.413333-1.592889-4.892444-0.227556-0.568889-0.568889-1.024-1.024-1.365334zM819.2 472.291556c4.778667-0.113778 8.647111-4.096 8.533333-8.874667-0.113778-4.778667-4.096-8.647111-8.874666-8.533333-4.778667 0.113778-8.647111 3.982222-8.533334 8.874666 0.113778 4.778667 4.096 8.647111 8.874667 8.533334zM776.419556 516.551111c4.778667-0.113778 8.647111-3.982222 8.533333-8.874667-0.113778-4.778667-4.096-8.647111-8.874667-8.533333-4.778667 0.113778-8.647111 3.982222-8.533333 8.874667 0.113778 4.778667 4.096 8.533333 8.874667 8.533333zM863.345778 515.072c4.778667-0.113778 8.647111-3.982222 8.533333-8.874667-0.113778-4.778667-4.096-8.647111-8.874667-8.533333-4.778667 0.113778-8.647111 3.982222-8.533333 8.874667 0.113778 4.778667 4.096 8.647111 8.874667 8.533333zM774.940444 429.511111c4.778667-0.113778 8.647111-3.982222 8.533334-8.874667-0.113778-4.778667-4.096-8.647111-8.874667-8.533333-4.778667 0.113778-8.647111 3.982222-8.533333 8.874667 0.227556 4.778667 4.096 8.647111 8.874666 8.533333zM870.513778 419.271111c-0.113778-4.778667-4.096-8.647111-8.874667-8.533333-4.778667 0.113778-8.647111 3.982222-8.533333 8.874666 0.113778 4.778667 3.982222 8.647111 8.874666 8.533334 4.778667-0.113778 8.647111-4.096 8.533334-8.874667zM728.860444 473.088c1.024 0.455111 2.161778 0.682667 3.413334 0.682667 0.341333 0 0.568889 0 0.910222-0.113778 1.137778-0.113778 2.275556-0.455111 3.185778-1.024 0.682667-0.455111 1.365333-0.910222 1.934222-1.479111 1.592889-1.592889 2.503111-3.754667 2.503111-6.144s-1.024-4.551111-2.616889-6.144c-0.455111-0.341333-0.796444-0.682667-1.251555-1.024-1.365333-0.910222-3.072-1.479111-4.892445-1.365334-1.251556 0-2.389333 0.227556-3.413333 0.682667-3.072 1.365333-5.233778 4.551111-5.233778 8.078222 0 3.527111 2.275556 6.599111 5.461333 7.850667zM826.368 376.490667c-0.113778-4.778667-4.096-8.647111-8.874667-8.533334-4.778667 0.113778-8.647111 3.982222-8.533333 8.874667 0.113778 4.778667 3.982222 8.647111 8.874667 8.533333 4.778667-0.113778 8.533333-4.096 8.533333-8.874666zM736.711111 371.825778c-0.455111-0.341333-0.796444-0.682667-1.251555-1.024-1.365333-0.910222-3.072-1.479111-4.892445-1.365334-1.251556 0-2.389333 0.227556-3.413333 0.682667-3.072 1.365333-5.233778 4.551111-5.233778 8.078222 0.113778 3.640889 2.275556 6.599111 5.461333 7.964445 1.024 0.455111 2.161778 0.682667 3.413334 0.682666 1.820444 0 3.413333-0.568889 4.892444-1.592888 0.455111-0.341333 0.910222-0.682667 1.251556-1.137778 1.592889-1.592889 2.503111-3.754667 2.503111-6.144-0.113778-2.503111-1.137778-4.664889-2.730667-6.144zM647.850667 631.694222c-4.778667 0.113778-8.647111 3.982222-8.533334 8.874667 0.113778 4.778667 3.982222 8.647111 8.874667 8.533333 4.778667-0.113778 8.647111-4.096 8.533333-8.874666-0.113778-4.778667-4.096-8.533333-8.874666-8.533334zM605.070222 675.953778c-4.778667 0.113778-8.647111 3.982222-8.533333 8.874666 0.113778 4.778667 3.982222 8.647111 8.874667 8.533334 4.778667-0.113778 8.647111-3.982222 8.533333-8.874667-0.113778-4.778667-4.096-8.647111-8.874667-8.533333zM692.337778 691.882667c4.778667-0.113778 8.647111-3.982222 8.533333-8.874667-0.113778-4.778667-4.096-8.647111-8.874667-8.533333-4.778667 0.113778-8.647111 3.982222-8.533333 8.874666 0.113778 4.778667 3.982222 8.647111 8.874667 8.533334zM603.591111 588.913778c-4.778667 0.113778-8.647111 3.982222-8.533333 8.874666 0.113778 4.778667 3.982222 8.647111 8.874666 8.533334 4.778667-0.113778 8.647111-3.982222 8.533334-8.874667-0.113778-4.778667-4.096-8.647111-8.874667-8.533333zM690.858667 604.956444c4.778667-0.113778 8.647111-3.982222 8.533333-8.874666-0.113778-4.778667-4.096-8.647111-8.874667-8.533334-4.778667 0.113778-8.647111 3.982222-8.533333 8.874667 0.113778 4.778667 4.096 8.533333 8.874667 8.533333zM646.371556 544.768c-4.778667 0.113778-8.647111 3.982222-8.533334 8.874667 0.113778 4.778667 3.982222 8.647111 8.874667 8.533333 4.778667-0.113778 8.647111-3.982222 8.533333-8.874667-0.113778-4.778667-4.096-8.647111-8.874666-8.533333zM822.044444 646.257778c4.778667-0.113778 8.647111-4.096 8.533334-8.874667-0.113778-4.778667-4.096-8.647111-8.874667-8.533333-4.778667 0.113778-8.647111 3.982222-8.533333 8.874666 0.113778 4.778667 4.096 8.647111 8.874666 8.533334zM779.264 690.517333c4.778667-0.113778 8.647111-3.982222 8.533333-8.874666-0.113778-4.778667-4.096-8.647111-8.874666-8.533334-4.778667 0.113778-8.647111 3.982222-8.533334 8.874667 0.113778 4.778667 4.096 8.533333 8.874667 8.533333zM866.304 689.038222c4.778667-0.113778 8.647111-3.982222 8.533333-8.874666-0.113778-4.778667-4.096-8.647111-8.874666-8.533334-4.778667 0.113778-8.647111 3.982222-8.533334 8.874667 0.113778 4.778667 3.982222 8.647111 8.874667 8.533333zM777.898667 603.477333c4.778667-0.113778 8.647111-3.982222 8.533333-8.874666-0.113778-4.778667-4.096-8.647111-8.874667-8.533334-4.778667 0.113778-8.647111 3.982222-8.533333 8.874667 0.113778 4.778667 3.982222 8.647111 8.874667 8.533333zM864.824889 602.112c4.778667-0.113778 8.647111-3.982222 8.533333-8.874667-0.113778-4.778667-4.096-8.647111-8.874666-8.533333-4.778667 0.113778-8.647111 3.982222-8.533334 8.874667 0.113778 4.778667 4.096 8.533333 8.874667 8.533333zM731.704889 647.054222c1.024 0.455111 2.161778 0.682667 3.413333 0.682667 2.048 0 3.982222-0.796444 5.461334-2.048 0.227556-0.227556 0.455111-0.341333 0.568888-0.568889 1.592889-1.592889 2.503111-3.754667 2.503112-6.144 0-2.389333-1.024-4.551111-2.616889-6.144-0.455111-0.341333-0.796444-0.682667-1.251556-1.024-1.365333-0.910222-3.072-1.479111-4.892444-1.365333-1.251556 0-2.389333 0.227556-3.413334 0.682666-3.072 1.365333-5.233778 4.551111-5.233777 8.078223 0 3.527111 2.275556 6.599111 5.461333 7.850666zM820.679111 559.331556c4.778667-0.113778 8.647111-3.982222 8.533333-8.874667-0.113778-4.778667-4.096-8.647111-8.874666-8.533333-4.778667 0.113778-8.647111 3.982222-8.533334 8.874666 0.113778 4.778667 3.982222 8.533333 8.874667 8.533334zM730.225778 560.128c1.024 0.455111 2.161778 0.682667 3.413333 0.682667 1.479111 0 2.958222-0.455111 4.096-1.137778 0.682667-0.455111 1.365333-0.910222 1.934222-1.479111 1.592889-1.592889 2.503111-3.754667 2.503111-6.144 0-2.389333-1.024-4.551111-2.616888-6.144-0.455111-0.341333-0.796444-0.682667-1.251556-1.024-1.365333-0.910222-3.072-1.479111-4.892444-1.365334-1.251556 0-2.389333 0.227556-3.413334 0.682667-3.072 1.365333-5.233778 4.551111-5.233778 8.078222 0.113778 3.527111 2.389333 6.485333 5.461334 7.850667zM650.695111 805.660444c-4.778667 0.113778-8.647111 3.982222-8.533333 8.874667 0 1.592889 0.455111 2.958222 1.137778 4.209778l11.946666-11.832889c-1.365333-0.796444-2.844444-1.251556-4.551111-1.251556zM597.902222 771.754667c0.113778 4.778667 3.982222 8.647111 8.874667 8.533333 4.778667-0.113778 8.647111-3.982222 8.533333-8.874667-0.113778-4.778667-4.096-8.647111-8.874666-8.533333-4.778667 0.113778-8.647111 4.096-8.533334 8.874667zM693.475556 761.514667c-4.778667 0.113778-8.647111 3.982222-8.533334 8.874666 0.113778 4.778667 3.982222 8.647111 8.874667 8.533334 4.778667-0.113778 8.647111-3.982222 8.533333-8.874667-0.113778-4.778667-4.096-8.647111-8.874666-8.533333zM649.216 718.734222c-4.778667 0.113778-8.647111 3.982222-8.533333 8.874667 0.113778 4.778667 3.982222 8.647111 8.874666 8.533333 4.778667-0.113778 8.647111-3.982222 8.533334-8.874666-0.113778-4.778667-4.096-8.647111-8.874667-8.533334zM780.743111 777.443556c4.778667-0.113778 8.647111-3.982222 8.533333-8.874667-0.113778-4.778667-4.096-8.647111-8.874666-8.533333-4.778667 0.113778-8.647111 3.982222-8.533334 8.874666 0.113778 4.778667 3.982222 8.647111 8.874667 8.533334zM876.202667 767.203556c-0.113778-4.778667-4.096-8.647111-8.874667-8.533334-4.778667 0.113778-8.647111 3.982222-8.533333 8.874667 0.113778 4.778667 3.982222 8.647111 8.874666 8.533333 4.778667-0.113778 8.647111-4.096 8.533334-8.874666zM823.523556 733.184c4.778667-0.113778 8.647111-3.982222 8.533333-8.874667-0.113778-4.778667-4.096-8.647111-8.874667-8.533333-4.778667 0.113778-8.647111 3.982222-8.533333 8.874667 0.113778 4.778667 3.982222 8.647111 8.874667 8.533333zM733.070222 733.980444c1.024 0.455111 2.161778 0.682667 3.413334 0.682667 1.479111 0 2.958222-0.455111 4.096-1.137778 0.682667-0.455111 1.365333-0.910222 1.934222-1.479111 1.592889-1.592889 2.503111-3.754667 2.503111-6.144 0-2.389333-1.024-4.551111-2.616889-6.144-0.455111-0.341333-0.796444-0.682667-1.251556-1.024-1.365333-0.910222-3.072-1.479111-4.892444-1.365333-1.251556 0-2.389333 0.227556-3.413333 0.682667-3.072 1.365333-5.233778 4.551111-5.233778 8.078222 0 0.455111 0 0.910222 0.113778 1.365333 0.568889 2.958222 2.616889 5.461333 5.347555 6.485333zM295.594667 376.490667c-4.778667 0.113778-8.647111 3.982222-8.533334 8.874666 0.113778 4.778667 3.982222 8.647111 8.874667 8.533334 4.778667-0.113778 8.647111-3.982222 8.533333-8.874667-0.113778-4.778667-3.982222-8.647111-8.874666-8.533333zM259.185778 346.453333c0.682667-1.251556 1.024-2.730667 1.024-4.209777 0-1.251556-0.341333-2.503111-0.796445-3.527112-0.113778 1.592889-0.227556 3.072-0.227555 4.209778v3.527111zM338.375111 332.231111c-4.778667 0.113778-8.647111 3.982222-8.533333 8.874667 0.113778 4.778667 3.982222 8.647111 8.874666 8.533333 4.778667-0.113778 8.647111-3.982222 8.533334-8.874667-0.113778-4.778667-4.096-8.533333-8.874667-8.533333zM425.415111 330.865778c-4.778667 0.113778-8.647111 3.982222-8.533333 8.874666 0.113778 4.778667 3.982222 8.647111 8.874666 8.533334 4.778667-0.113778 8.647111-3.982222 8.533334-8.874667-0.113778-4.778667-4.096-8.647111-8.874667-8.533333zM512.341333 329.386667c-4.778667 0.113778-8.647111 3.982222-8.533333 8.874666 0.113778 4.778667 3.982222 8.647111 8.874667 8.533334 4.778667-0.113778 8.647111-3.982222 8.533333-8.874667-0.113778-4.778667-4.096-8.533333-8.874667-8.533333zM298.439111 550.456889c-4.778667 0.113778-8.647111 3.982222-8.533333 8.874667 0.113778 4.778667 3.982222 8.647111 8.874666 8.533333 4.778667-0.113778 8.647111-3.982222 8.533334-8.874667-0.113778-4.778667-3.982222-8.647111-8.874667-8.533333zM297.073778 463.416889c-4.778667 0.113778-8.647111 3.982222-8.533334 8.874667 0.113778 4.778667 3.982222 8.647111 8.874667 8.533333 4.778667-0.113778 8.647111-4.096 8.533333-8.874667-0.113778-4.778667-4.096-8.533333-8.874666-8.533333zM259.185778 509.155556v14.449777c2.389333-1.592889 3.982222-4.323556 3.868444-7.395555 0-2.958222-1.479111-5.575111-3.868444-7.054222zM341.219556 506.197333c-4.778667 0.113778-8.647111 3.982222-8.533334 8.874667 0.113778 4.778667 3.982222 8.647111 8.874667 8.533333 4.778667-0.113778 8.647111-3.982222 8.533333-8.874666-0.113778-4.778667-3.982222-8.533333-8.874666-8.533334zM259.185778 435.427556c1.592889-1.592889 2.503111-3.754667 2.503111-6.144 0-2.275556-1.024-4.323556-2.503111-5.916445v12.060445zM339.854222 419.271111c-4.778667 0.113778-8.647111 3.982222-8.533333 8.874667 0.113778 4.778667 3.982222 8.647111 8.874667 8.533333 4.778667-0.113778 8.647111-3.982222 8.533333-8.874667-0.113778-4.778667-4.096-8.647111-8.874667-8.533333zM471.267556 477.980444c4.778667-0.113778 8.647111-4.096 8.533333-8.874666-0.113778-4.778667-4.096-8.647111-8.874667-8.533334-4.778667 0.113778-8.647111 3.982222-8.533333 8.874667 0.113778 4.778667 4.096 8.647111 8.874667 8.533333zM428.259556 504.832c-4.778667 0.113778-8.647111 3.982222-8.533334 8.874667 0.113778 4.778667 3.982222 8.647111 8.874667 8.533333 4.778667-0.113778 8.647111-3.982222 8.533333-8.874667-0.113778-4.778667-4.096-8.647111-8.874666-8.533333zM515.185778 503.352889c-4.778667 0.113778-8.647111 3.982222-8.533334 8.874667 0.113778 4.778667 3.982222 8.647111 8.874667 8.533333 4.778667-0.113778 8.647111-3.982222 8.533333-8.874667-0.113778-4.778667-4.096-8.533333-8.874666-8.533333zM426.780444 417.792c-4.778667 0.113778-8.647111 3.982222-8.533333 8.874667 0.113778 4.778667 3.982222 8.647111 8.874667 8.533333 4.778667-0.113778 8.647111-3.982222 8.533333-8.874667-0.113778-4.778667-4.096-8.533333-8.874667-8.533333zM513.820444 416.426667c-4.778667 0.113778-8.647111 3.982222-8.533333 8.874666 0.113778 4.778667 3.982222 8.647111 8.874667 8.533334 4.778667-0.113778 8.647111-3.982222 8.533333-8.874667-0.113778-4.778667-4.096-8.647111-8.874667-8.533333zM387.413333 462.620444c-1.024-0.455111-2.161778-0.682667-3.413333-0.682666-3.640889 0.113778-6.712889 2.275556-7.964444 5.461333-0.455111 1.024-0.682667 2.161778-0.682667 3.413333s0.227556 2.389333 0.682667 3.413334c1.365333 3.072 4.551111 5.233778 8.078222 5.233778 1.251556 0 2.389333-0.227556 3.413333-0.796445 2.048-0.910222 3.754667-2.616889 4.551111-4.664889 0.455111-1.024 0.682667-2.161778 0.682667-3.413333s-0.227556-2.389333-0.682667-3.413333c-0.910222-2.048-2.503111-3.640889-4.664889-4.551112zM469.902222 391.054222c4.778667-0.113778 8.647111-3.982222 8.533334-8.874666-0.113778-4.778667-4.096-8.647111-8.874667-8.533334-4.778667 0.113778-8.647111 3.982222-8.533333 8.874667 0.113778 4.778667 3.982222 8.533333 8.874666 8.533333zM386.048 375.694222c-1.024-0.455111-2.161778-0.682667-3.413333-0.682666-3.640889 0.113778-6.712889 2.275556-7.964445 5.461333-0.455111 1.024-0.682667 2.161778-0.682666 3.413333s0.227556 2.389333 0.682666 3.413334c1.365333 3.072 4.551111 5.233778 8.078222 5.233777 1.251556 0 2.389333-0.227556 3.413334-0.682666 2.048-0.910222 3.754667-2.616889 4.551111-4.664889 0.455111-1.024 0.682667-2.161778 0.682667-3.413334s-0.227556-2.389333-0.682667-3.413333c-0.910222-2.161778-2.616889-3.868444-4.664889-4.664889zM564.224 461.596444c-0.796444-0.796444-1.706667-1.365333-2.844444-1.820444-1.024-0.455111-2.161778-0.682667-3.413334-0.682667-0.455111 0-0.796444 0-1.137778 0.113778-2.844444 0.455111-5.12 2.161778-6.371555 4.551111-0.113778 0.113778-0.113778 0.341333-0.227556 0.455111 0 0.113778-0.113778 0.227556-0.113777 0.227556-0.455111 1.024-0.682667 2.161778-0.682667 3.413333 0 2.275556 1.024 4.437333 2.503111 5.916445 0.113778 0.113778 0.227556 0.227556 0.455111 0.341333 1.592889 1.479111 3.640889 2.275556 5.916445 2.275556 2.048 0 3.982222-0.796444 5.461333-2.048 0.227556-0.227556 0.455111-0.341333 0.568889-0.568889 1.592889-1.592889 2.503111-3.754667 2.389333-6.144 0-1.820444-0.568889-3.413333-1.592889-4.892445-0.227556-0.341333-0.568889-0.682667-0.910222-1.137778zM292.750222 733.184c0.113778 4.778667 3.982222 8.647111 8.874667 8.533333 4.778667-0.113778 8.647111-3.982222 8.533333-8.874666-0.113778-4.778667-4.096-8.647111-8.874666-8.533334-4.778667 0.113778-8.533333 4.096-8.533334 8.874667zM299.918222 637.383111c-4.778667 0.113778-8.647111 3.982222-8.533333 8.874667 0.113778 4.778667 3.982222 8.647111 8.874667 8.533333 4.778667-0.113778 8.647111-4.096 8.533333-8.874667-0.113778-4.778667-4.096-8.533333-8.874667-8.533333zM266.012444 690.176c-0.113778-4.096-2.958222-7.395556-6.712888-8.305778v16.952889c3.868444-0.910222 6.712889-4.437333 6.712888-8.647111zM344.064 680.163556c-4.778667 0.113778-8.647111 3.982222-8.533333 8.874666 0.113778 4.778667 3.982222 8.647111 8.874666 8.533334 4.778667-0.113778 8.647111-3.982222 8.533334-8.874667-0.113778-4.778667-3.982222-8.533333-8.874667-8.533333zM259.185778 611.328c3.185778-1.365333 5.347556-4.551111 5.347555-8.192-0.113778-3.527111-2.275556-6.599111-5.347555-7.850667v16.042667zM342.698667 593.237333c-4.778667 0.113778-8.647111 3.982222-8.533334 8.874667 0.113778 4.778667 3.982222 8.647111 8.874667 8.533333 4.778667-0.113778 8.647111-3.982222 8.533333-8.874666-0.113778-4.778667-4.096-8.647111-8.874666-8.533334zM474.112 651.946667c4.778667-0.113778 8.647111-4.096 8.533333-8.874667-0.113778-4.778667-4.096-8.647111-8.874666-8.533333-4.778667 0.113778-8.647111 3.982222-8.533334 8.874666 0.113778 4.778667 4.096 8.647111 8.874667 8.533334zM431.104 678.798222c-4.778667 0.113778-8.647111 3.982222-8.533333 8.874667 0.113778 4.778667 3.982222 8.647111 8.874666 8.533333 4.778667-0.113778 8.647111-3.982222 8.533334-8.874666-0.113778-4.778667-4.096-8.647111-8.874667-8.533334zM518.030222 677.319111c-4.778667 0.113778-8.647111 3.982222-8.533333 8.874667 0.113778 4.778667 3.982222 8.647111 8.874667 8.533333 4.778667-0.113778 8.647111-3.982222 8.533333-8.874667-0.113778-4.778667-4.096-8.647111-8.874667-8.533333zM429.624889 591.758222c-4.778667 0.113778-8.647111 3.982222-8.533333 8.874667 0.113778 4.778667 3.982222 8.647111 8.874666 8.533333 4.778667-0.113778 8.647111-3.982222 8.533334-8.874666-0.113778-4.778667-4.096-8.533333-8.874667-8.533334zM516.664889 590.392889c-4.778667 0.113778-8.647111 3.982222-8.533333 8.874667 0.113778 4.778667 3.982222 8.647111 8.874666 8.533333 4.778667-0.113778 8.647111-3.982222 8.533334-8.874667-0.113778-4.778667-4.096-8.647111-8.874667-8.533333zM390.257778 636.586667c-1.024-0.455111-2.161778-0.682667-3.413334-0.682667-3.640889 0.113778-6.712889 2.275556-7.964444 5.461333-0.455111 1.024-0.682667 2.161778-0.682667 3.413334s0.227556 2.389333 0.682667 3.413333c1.365333 3.072 4.551111 5.233778 8.078222 5.233778 1.251556 0 2.389333-0.227556 3.413334-0.796445 2.048-0.910222 3.754667-2.616889 4.551111-4.664889 0.455111-1.024 0.682667-2.161778 0.682666-3.413333s-0.227556-2.389333-0.682666-3.413333c-0.796444-2.048-2.503111-3.640889-4.664889-4.551111zM472.746667 565.020444c4.778667-0.113778 8.647111-3.982222 8.533333-8.874666-0.113778-4.778667-4.096-8.647111-8.874667-8.533334-4.778667 0.113778-8.647111 3.982222-8.533333 8.874667 0.113778 4.778667 4.096 8.533333 8.874667 8.533333zM388.892444 549.660444c-1.024-0.455111-2.161778-0.682667-3.413333-0.682666-3.640889 0.113778-6.712889 2.275556-7.964444 5.461333-0.455111 1.024-0.682667 2.161778-0.682667 3.413333s0.227556 2.389333 0.682667 3.413334c1.365333 3.072 4.551111 5.233778 8.078222 5.233778 1.251556 0 2.389333-0.227556 3.413333-0.682667 2.048-0.910222 3.754667-2.616889 4.551111-4.664889 0.455111-1.024 0.682667-2.161778 0.682667-3.413333s-0.227556-2.389333-0.682667-3.413334c-0.910222-2.161778-2.616889-3.868444-4.664889-4.664889zM566.385778 634.993778c-0.227556-0.227556-0.455111-0.341333-0.682667-0.455111-1.365333-0.910222-3.072-1.479111-4.892444-1.365334-0.455111 0-0.796444 0-1.137778 0.113778-2.616889 0.341333-4.778667 1.934222-6.144 4.096-0.796444 1.365333-1.251556 2.958222-1.251556 4.664889 0 0.341333 0 0.568889 0.113778 0.910222 0.227556 1.934222 1.137778 3.754667 2.389333 5.006222 1.365333 1.365333 3.185778 2.389333 5.347556 2.616889 0.341333 0 0.682667 0.113778 1.024 0 1.479111 0 2.958222-0.455111 4.096-1.137777 0.227556-0.113778 0.455111-0.341333 0.682667-0.455112 0.682667-0.455111 1.251556-1.024 1.820444-1.706666 1.251556-1.479111 1.934222-3.413333 1.934222-5.575111 0-1.251556-0.227556-2.389333-0.682666-3.413334-0.682667-1.251556-1.479111-2.389333-2.616889-3.299555zM567.182222 550.570667c-0.113778-0.227556-0.341333-0.455111-0.455111-0.682667-1.592889-2.275556-4.323556-3.754667-7.281778-3.754667-0.455111 0-0.796444 0-1.137777 0.113778-2.844444 0.455111-5.12 2.161778-6.371556 4.551111-0.682667 1.251556-1.024 2.616889-1.024 4.209778 0 2.048 0.796444 3.982222 2.048 5.461333 0.227556 0.227556 0.341333 0.455111 0.568889 0.682667 0.568889 0.568889 1.137778 1.024 1.820444 1.365333l0.682667 0.341334c0.113778 0.113778 0.227556 0.113778 0.341333 0.113777 0.341333 0.113778 0.796444 0.227556 1.137778 0.341334 0.227556 0 0.455111 0.113778 0.568889 0.113778 0.455111 0.113778 1.024 0.113778 1.479111 0.113777 1.251556 0 2.389333-0.227556 3.413333-0.682666 3.072-1.365333 5.233778-4.551111 5.233778-8.078223 0-0.910222-0.113778-1.820444-0.455111-2.616888-0.113778-0.568889-0.341333-1.137778-0.568889-1.592889zM259.185778 768.568889v0.113778c0 7.054222 1.251556 12.288 3.982222 15.928889 2.503111-1.592889 4.209778-4.323556 4.209778-7.509334 0-4.551111-3.640889-8.192-8.192-8.533333zM337.009778 775.964444c0.113778 4.778667 3.982222 8.647111 8.874666 8.533334 4.778667-0.113778 8.647111-3.982222 8.533334-8.874667-0.113778-4.778667-4.096-8.647111-8.874667-8.533333-4.778667 0.113778-8.647111 4.096-8.533333 8.874666zM423.936 774.599111c0.113778 4.778667 3.982222 8.647111 8.874667 8.533333 4.778667-0.113778 8.647111-3.982222 8.533333-8.874666-0.113778-4.778667-4.096-8.647111-8.874667-8.533334-4.778667 0.113778-8.647111 4.096-8.533333 8.874667zM510.976 773.12c0.113778 4.778667 3.982222 8.647111 8.874667 8.533333 4.778667-0.113778 8.647111-3.982222 8.533333-8.874666-0.113778-4.778667-4.096-8.647111-8.874667-8.533334-4.778667 0.113778-8.647111 4.096-8.533333 8.874667zM466.716444 730.339556c0.113778 4.778667 3.982222 8.647111 8.874667 8.533333 4.778667-0.113778 8.647111-3.982222 8.533333-8.874667-0.113778-4.778667-4.096-8.647111-8.874666-8.533333-4.778667 0.113778-8.647111 4.096-8.533334 8.874667zM391.736889 723.626667c-1.024-0.455111-2.161778-0.682667-3.413333-0.682667-3.640889 0.113778-6.712889 2.275556-7.964445 5.461333-0.455111 1.024-0.682667 2.161778-0.682667 3.413334s0.227556 2.389333 0.682667 3.413333c1.365333 3.072 4.551111 5.233778 8.078222 5.233778 1.251556 0 2.389333-0.227556 3.413334-0.682667 2.048-0.910222 3.754667-2.616889 4.551111-4.664889 0.455111-1.024 0.682667-2.161778 0.682666-3.413333s-0.227556-2.389333-0.682666-3.413333c-0.910222-2.161778-2.616889-3.868444-4.664889-4.664889zM571.392 811.576889c-0.113778-0.227556-0.341333-0.455111-0.455111-0.682667-1.592889-2.275556-4.323556-3.754667-7.281778-3.754666-0.796444 0-1.592889 0.113778-2.389333 0.341333h-0.227556c-1.365333 0.455111-2.616889 1.251556-3.527111 2.161778-1.592889 1.592889-2.503111 3.754667-2.503111 6.144 0 1.934222 0.682667 3.754667 1.820444 5.12 1.365333 1.820444 3.527111 3.072 6.030223 3.299555 0.341333 0 0.682667 0.113778 1.024 0 1.479111 0 2.958222-0.455111 4.096-1.137778 0.227556-0.113778 0.455111-0.341333 0.682666-0.455111 0.682667-0.455111 1.251556-1.024 1.820445-1.706666 1.251556-1.479111 1.934222-3.413333 1.934222-5.575111 0-0.910222-0.113778-1.820444-0.455111-2.616889 0-0.227556-0.227556-0.682667-0.568889-1.137778zM562.289778 720.099556c-0.796444 0-1.592889 0.113778-2.389334 0.341333h-0.227555-0.113778c-1.820444 0.682667-3.413333 1.820444-4.551111 3.527111-0.910222 1.365333-1.479111 3.072-1.365333 4.892444 0 2.048 0.796444 3.982222 2.048 5.461334 1.592889 1.934222 4.096 3.072 6.712889 3.072 2.958222 0 5.575111-1.592889 7.168-3.982222 0.341333-0.455111 0.568889-0.910222 0.796444-1.479112 0.227556-0.568889 0.341333-1.024 0.455111-1.592888s0.113778-1.137778 0.113778-1.706667c0-0.910222-0.113778-1.820444-0.455111-2.616889-0.227556-0.568889-0.455111-1.024-0.682667-1.592889-0.113778-0.227556-0.341333-0.455111-0.455111-0.682667-1.365333-2.161778-4.096-3.640889-7.054222-3.640888z" fill="#231B3B" p-id="9095"></path><path d="M832.056889 214.471111H251.676444c-46.08 0-79.530667 35.612444-79.530666 84.764445v425.870222c0 47.445333 31.971556 79.416889 79.530666 79.416889h170.097778l101.717334 98.872889c5.461333 5.461333 12.629333 8.192 19.797333 8.192 7.281778 0 14.449778-2.844444 20.024889-8.305778l99.896889-98.645334h168.846222c47.445333 0 79.416889-31.971556 79.416889-79.416888V299.235556c0-49.152-33.336889-84.764444-79.416889-84.764445z m22.983111 510.634667c0 16.384-6.599111 22.983111-22.983111 22.983111H651.491556c-7.850667 0-14.904889 3.185778-20.024889 8.305778l-88.291556 87.04-89.998222-87.267556c-5.688889-5.688889-13.198222-8.419556-20.593778-8.078222h-180.906667c-16.497778 0-23.210667-6.599111-23.210666-22.983111V299.235556c0-8.533333 2.275556-28.330667 23.210666-28.330667h580.380445c20.707556 0 22.983111 19.797333 22.983111 28.330667v425.870222z m0 0" fill="#592B0C" p-id="9096"></path><path d="M321.422222 506.652444c0 27.648 22.414222 50.062222 50.062222 50.062223s50.062222-22.414222 50.062223-50.062223-22.414222-50.062222-50.062223-50.062222-50.062222 22.414222-50.062222 50.062222z m178.289778 0c0 27.648 22.414222 50.062222 50.062222 50.062223s50.062222-22.414222 50.062222-50.062223-22.414222-50.062222-50.062222-50.062222-50.062222 22.414222-50.062222 50.062222c0 27.534222 0 0 0 0z m177.152-0.682666c0 27.648 22.414222 50.062222 50.062222 50.062222s50.062222-22.414222 50.062222-50.062222-22.414222-50.062222-50.062222-50.062222c-27.761778 0-50.062222 22.414222-50.062222 50.062222z m0 0" fill="#592B0C" p-id="9097"></path></svg>