<?xml version="1.0" standalone="no"?><!DOCTYPE svg PUBLIC "-//W3C//DTD SVG 1.1//EN" "http://www.w3.org/Graphics/SVG/1.1/DTD/svg11.dtd"><svg t="1575599110019" class="icon" viewBox="0 0 1024 1024" version="1.1" xmlns="http://www.w3.org/2000/svg" p-id="2006" xmlns:xlink="http://www.w3.org/1999/xlink" width="128" height="128"><defs><style type="text/css"></style></defs><path d="M796.3 297.4c0 64.5-52.3 116.9-116.9 116.9H225.2c-64.5 0-116.9-52.3-116.9-116.9v-29.2c0-64.5 52.3-116.9 116.9-116.9h454.2c64.5 0 116.9 52.3 116.9 116.9v29.2z" fill="#EE3E2B" p-id="2007"></path><path d="M679.4 424.6H225.2c-70.1 0-127.1-57-127.1-127.1v-29.2c0-70.1 57-127.1 127.1-127.1h454.2c70.1 0 127.1 57 127.1 127.1v29.2c0 70-57 127.1-127.1 127.1z m-454.2-263c-58.8 0-106.6 47.8-106.6 106.6v29.2c0 58.8 47.8 106.6 106.6 106.6h454.2c58.8 0 106.6-47.8 106.6-106.6v-29.2c0-58.8-47.8-106.6-106.6-106.6H225.2z" fill="#7F0518" p-id="2008"></path><path d="M215.7 868.9c-58.8 0-106.6-47.8-106.6-106.6V268.2c0-0.3 0.1-20.4 6.6-38.5 12 17.2 39.1 38.1 100 38.1h547.2c58.8 0 106.6 47.8 106.6 106.6v387.8c0 58.8-47.8 106.6-106.6 106.6H215.7z" fill="#FF6A48" p-id="2009"></path><path d="M121 250.5c17.2 14.7 46.1 27.6 94.7 27.6h547.2c53.1 0 96.3 43.2 96.3 96.4v387.8c0 53.1-43.2 96.4-96.3 96.4H215.7c-53.1 0-96.3-43.2-96.3-96.4V268.2c-0.1-3.5 0.3-10.1 1.6-17.7m-4.5-43.9c-17.7 22.2-17.7 61.6-17.7 61.6v494c0 64.5 52.3 116.9 116.9 116.9h547.2c64.5 0 116.9-52.3 116.9-116.9V374.5c0-64.5-52.3-116.9-116.9-116.9H215.7c-93 0-99.2-51-99.2-51z" fill="#7F0518" p-id="2010"></path><path d="M723.8 836.8h-15.5v-20.9h15.5c15.2 0 29.7-2.9 43.3-8.5l8.1 19.3c-16.1 6.7-33.4 10.1-51.4 10.1z m-47.5 0h-64.1v-20.9h64.1v20.9z m-96.2 0H516v-20.9h64.1v20.9z m-96.2 0h-64.1v-20.9h64.1v20.9z m-96.1 0h-64.1v-20.9h64.1v20.9z m-96.2 0h-64.1v-20.9h64.1v20.9z m-97.3-0.9c-23.8-2.8-49.7-7-61.6-24.9-10.5-15.8-11.1-30.2-11.1-30.2 22.9 31.7 55.4 34.6 75.1 34.3l-2.4 20.8z m610.9-27.1L792 792.6c15.6-12.7 25.9-29 29.6-47.1l20.5 4.2c-4.6 22.5-17.7 43.5-36.9 59.1z m38.9-93.1h-21v-63.9h21v63.9z m0-95.8h-21V556h21v63.9z m0-95.9h-21v-63.9h21V524z m0-95.8h-21v-16c0-13.9-4-27.7-11.5-39.9l17.9-10.9c9.5 15.5 14.6 33.1 14.6 50.9v15.9z m-51.2-77.4c-14.6-12.2-32.8-20.1-52.7-22.9l3-20.7c23.7 3.4 45.6 12.9 63.2 27.6l-13.5 16z m-83.3-24.1h-64.1v-20.9h64.1v20.9z m-96.1 0h-64.1v-20.9h64.1v20.9z m-96.2 0h-64.1v-20.9h64.1v20.9z m-96.1 0H357v-20.9h64.1v20.9z m-96.2 0h-64.1v-20.9H325v20.9z m-96.2 0H210c-17.8 0-33.8-1.7-47.5-5.1l5-20.3c12 3 26.3 4.5 42.4 4.5h18.8v20.9zM129.4 303.6l11.9-17.2c-12.2-8.4-14-17.2-14-17.3l-7.4-21.6c-2.9 14.7-2.2 32-2.2 32v13.9c2.9 3.2 7.2 7.1 11.7 10.2z" fill="#FFC831" p-id="2011"></path><path d="M919.8 588.1c0 29.3-23.8 53.1-53.1 53.1H747.1c-29.3 0-53.1-23.8-53.1-53.1V543c0-29.3 23.8-53.1 53.1-53.1h119.5c29.4 0 53.1 23.8 53.1 53.1v45.1z" fill="#FFFFFF" p-id="2012"></path><path d="M866.6 651.5H747.1c-35 0-63.4-28.4-63.4-63.4V543c0-34.9 28.4-63.4 63.4-63.4h119.5c35 0 63.4 28.4 63.4 63.4v45.2c0 34.9-28.4 63.3-63.4 63.3zM747.1 500.1c-23.6 0-42.9 19.2-42.9 42.9v45.2c0 23.6 19.2 42.9 42.9 42.9h119.5c23.6 0 42.9-19.2 42.9-42.9V543c0-23.6-19.2-42.9-42.9-42.9H747.1z" fill="#7F0518" p-id="2013"></path><path d="M806.9 565.6c0 14.7-11.9 26.6-26.6 26.6-14.7 0-26.6-11.9-26.6-26.6 0-14.7 11.9-26.6 26.6-26.6 14.7 0 26.6 11.9 26.6 26.6z" fill="#FF6A48" p-id="2014"></path></svg>