<?xml version="1.0" standalone="no"?><!DOCTYPE svg PUBLIC "-//W3C//DTD SVG 1.1//EN" "http://www.w3.org/Graphics/SVG/1.1/DTD/svg11.dtd"><svg t="1575960005727" class="icon" viewBox="0 0 1024 1024" version="1.1" xmlns="http://www.w3.org/2000/svg" p-id="2698" xmlns:xlink="http://www.w3.org/1999/xlink" width="128" height="128"><defs><style type="text/css"></style></defs><path d="M265.774545 989.090909a75.636364 75.636364 0 0 1-42.821818-13.498182 74.938182 74.938182 0 0 1-29.090909-84.48l65.861818-214.341818a63.534545 63.534545 0 0 0-21.876363-68.654545l-173.381818-133.585455a75.636364 75.636364 0 0 1 46.545454-135.68h207.127273a61.672727 61.672727 0 0 0 59.345454-44.218182l63.301819-206.429091a75.170909 75.170909 0 0 1 143.825454 0l63.301818 206.429091a61.672727 61.672727 0 0 0 59.345455 44.218182h207.127273a75.636364 75.636364 0 0 1 46.545454 135.68L850.152727 558.545455a34.909091 34.909091 0 1 1-42.589091-55.389091L916.945455 418.909091a5.12 5.12 0 0 0 1.861818-6.516364 4.654545 4.654545 0 0 0-5.12-3.956363h-207.127273a131.490909 131.490909 0 0 1-126.138182-93.090909l-63.301818-206.661819a5.352727 5.352727 0 0 0-10.24 0l-63.301818 206.429091a131.490909 131.490909 0 0 1-126.138182 93.090909h-207.127273a4.654545 4.654545 0 0 0-5.12 3.956364 5.12 5.12 0 0 0 1.861818 6.749091l173.381819 133.585454A133.352727 133.352727 0 0 1 325.818182 698.181818l-65.163637 213.410909a4.887273 4.887273 0 0 0 2.094546 6.516364 4.654545 4.654545 0 0 0 6.283636 0l162.909091-125.207273a131.956364 131.956364 0 0 1 160.581818 0l162.909091 125.207273a4.654545 4.654545 0 0 0 6.283637 0 4.887273 4.887273 0 0 0 2.094545-6.516364l-15.127273-49.338182a34.909091 34.909091 0 1 1 65.861819-20.48l15.127272 49.338182a75.170909 75.170909 0 0 1-117.76 82.152728l-162.909091-125.207273a61.44 61.44 0 0 0-75.403636 0l-162.909091 125.207273a74.007273 74.007273 0 0 1-44.916364 15.825454z" fill="#d4237a" p-id="2699"></path><path d="M577.629091 606.487273m32.814545 0l221.090909 0q32.814545 0 32.814546 32.814545l0 4.189091q0 32.814545-32.814546 32.814546l-221.090909 0q-32.814545 0-32.814545-32.814546l0-4.189091q0-32.814545 32.814545-32.814545Z" fill="#d4237a" p-id="2700"></path><path d="M756.130909 496.872727m0 34.909091l0 219.229091q0 34.909091-34.909091 34.909091l0 0q-34.909091 0-34.909091-34.909091l0-219.229091q0-34.909091 34.909091-34.909091l0 0q34.909091 0 34.909091 34.909091Z" fill="#d4237a" p-id="2701"></path></svg>