<?xml version="1.0" standalone="no"?><!DOCTYPE svg PUBLIC "-//W3C//DTD SVG 1.1//EN" "http://www.w3.org/Graphics/SVG/1.1/DTD/svg11.dtd"><svg t="1575602401521" class="icon" viewBox="0 0 1024 1024" version="1.1" xmlns="http://www.w3.org/2000/svg" p-id="12702" xmlns:xlink="http://www.w3.org/1999/xlink" width="128" height="128"><defs><style type="text/css"></style></defs><path d="M779.822257 732.171492c-46.664809 0-85.578074 31.306007-94.509491 72.894194L334.978772 805.065685c-8.930393-41.589211-47.842635-72.894194-94.508467-72.894194-53.281507 0-96.456842 40.800241-96.456842 91.118254 0 50.333362 43.175335 91.118254 96.456842 91.118254 46.665833 0 85.578074-31.30703 94.508467-72.895217l350.333994 0c8.93244 41.589211 47.845705 72.895217 94.509491 72.895217 53.283554 0 96.457866-40.784892 96.457866-91.118254C876.280122 772.971733 833.106834 732.171492 779.822257 732.171492L779.822257 732.171492zM240.470305 877.959879c-31.967062 0-57.872059-24.475438-57.872059-54.670134 0-30.18037 25.904996-54.671157 57.872059-54.671157 31.945573 0 57.875129 24.490787 57.875129 54.671157C298.345434 853.484442 272.435321 877.959879 240.470305 877.959879L240.470305 877.959879zM779.822257 877.959879c-31.963992 0-57.874105-24.475438-57.874105-54.670134 0-30.18037 25.90909-54.671157 57.874105-54.671157 31.965016 0 57.875129 24.490787 57.875129 54.671157C837.697385 853.484442 811.788296 877.959879 779.822257 877.959879L779.822257 877.959879zM949.299159 502.69917 713.921337 280.405341c-3.198855-2.242064-6.960529-3.829212-11.264555-3.829212L567.617204 276.576129 567.617204 167.233815c0-10.061147-8.644891-18.223037-19.292392-18.223037L143.199934 149.010779c-42.614563 0-77.164451 32.637328-77.164451 72.894194l0 601.384773c0 10.076496 8.640798 18.223037 19.292392 18.223037s19.291368-8.146541 19.291368-18.223037L104.619244 221.904972c0-20.1182 17.284665-36.447097 38.581714-36.447097l385.834532 0 0 109.342314c0 10.076496 8.639774 18.223037 19.291368 18.223037l146.478096 0 220.059951 207.900004 0 302.366516c0 10.076496 8.644891 18.223037 19.291368 18.223037 10.650571 0 19.292392-8.146541 19.292392-18.223037L953.448666 513.487887C953.445596 509.367033 951.728488 505.757832 949.299159 502.69917L949.299159 502.69917zM856.988754 568.158021l-289.370527 0L567.618227 367.694383c0-10.057053-8.644891-18.22406-19.292392-18.22406-10.650571 0-19.291368 8.167007-19.291368 18.22406l0 218.688721c0 10.077519 8.639774 18.22406 19.291368 18.22406l308.662919 0c10.650571 0 19.292392-8.146541 19.292392-18.22406C876.280122 576.321958 867.656721 568.158021 856.988754 568.158021L856.988754 568.158021zM856.988754 568.158021" p-id="12703"></path></svg>