<?xml version="1.0" standalone="no"?><!DOCTYPE svg PUBLIC "-//W3C//DTD SVG 1.1//EN" "http://www.w3.org/Graphics/SVG/1.1/DTD/svg11.dtd"><svg t="1575599637220" class="icon" viewBox="0 0 1024 1024" version="1.1" xmlns="http://www.w3.org/2000/svg" p-id="11280" xmlns:xlink="http://www.w3.org/1999/xlink" width="128" height="128"><defs><style type="text/css"></style></defs><path d="M590.1312 742.38976c-46.64832 29.58848-100.12672 56.88832-121.73824 68.27008l-1.14176 1.14176-2.2784-1.14176c-1.13664-1.14176-3.40992-1.14176-4.55168-2.26816-37.54496-20.48-138.8032-73.9584-176.35328-111.50848-39.81824-39.81312-51.2-80.77312-53.46816-88.73984l-1.14176-318.57152 238.93504-77.36832 238.92992 77.36832-1.14176 282.17856h37.55008l1.14176-309.48352-276.48-91.02336L190.7712 259.97824l1.13664 348.16v3.42016c2.2784 10.22976 14.79168 60.28288 63.7184 110.35136 40.96 40.96 142.21824 94.4384 185.45664 118.32832l4.55168 2.2784c4.55168 2.26304 7.96672 4.55168 10.24 5.6832l9.09824 4.5568 11.38176-5.68832c14.79168-6.83008 63.71328-31.86176 112.64-61.44v-43.2384h1.13664z" fill="#43A683" p-id="11281"></path><path d="M611.74784 661.61152v-104.66816h-270.7968v104.66816h38.68672v-14.79168h194.56v14.79168h37.55008z m-232.11008-39.82336v-37.53984h194.56v37.53984h-194.56z m-7.9616-296.95488c-15.92832 38.6816-38.6816 72.82176-70.53824 104.67328l6.82496 22.75328 4.5568 17.07008c5.6832-5.68832 10.24-11.38176 15.9232-17.07008 4.5568-5.68832 9.10336-10.24 13.65504-15.92832v108.09344h36.40832v-11.38688h255.99488v-26.16832h-119.46496v-23.88992h104.67328v-22.75328h-104.67328v-23.89504h104.67328v-23.88992h-104.67328v-25.03168h114.91328v-25.0368h-105.80992c-2.2784-5.6832-5.68832-12.51328-9.10336-19.34336-3.41504-6.81984-7.96672-13.64992-11.37664-19.33824l-39.82336 4.55168 9.10336 17.07008 7.9616 17.06496H394.43456l17.05984-32.99328-39.81824-4.55168z m106.95168 180.90496H379.63776V481.8432h98.99008v23.89504z m0-46.6432H379.63776v-23.90016h98.99008v23.90016z m0-70.54336v23.89504H379.63776v-23.89504h98.99008z m349.29152 229.82656l20.48 38.6816c4.56192 7.97184 7.97184 21.62176 7.97184 30.72v125.1584c0 11.37152-10.24 21.61152-21.62176 21.61152h-191.15008c-12.50816 0-21.61152-10.24-21.61152-21.61152v-9.10848c0-4.55168 3.40992-6.81984 6.81984-6.81984 4.55168 0 6.83008 3.40992 6.83008 6.81984v9.10848c0 3.40992 3.40992 6.81984 6.83008 6.81984h190.0032c4.5568 0 6.81984-3.40992 6.81984-6.81984v-128.56832h-204.8v7.9616c0 4.55168-3.40992 6.83008-6.81984 6.83008-4.56192 0-6.83008-3.40992-6.83008-6.83008v-5.68832c0-9.09312 3.40992-22.74304 7.96672-30.72l20.48-37.53984c4.55168-9.09312 17.07008-17.05984 28.45184-17.05984h122.88c10.24-0.00512 22.74816 7.95648 27.29984 17.05472z m-188.87168 52.33152h199.11168c-1.13152-2.26816-1.13152-4.55168-2.26816-6.81984l-20.48-38.69184c-2.2784-4.5568-9.09824-9.09824-14.79168-9.09824h-122.88c-5.68832 0-12.5184 4.55168-14.79168 9.09824l-20.48 37.55008c-1.13664 2.28352-2.2784 4.55168-3.42016 7.9616z m76.23168 85.34016v7.9616c0 1.14176-1.13152 1.14176-1.13152 1.14176l-31.86688 31.86688a8.9344 8.9344 0 0 1-12.51328 0 8.9344 8.9344 0 0 1 0-12.51328l15.9232-15.92832h-53.46304c-4.5568 0-9.10848-4.55168-9.10848-9.09824 0-4.54656 4.56192-9.09824 9.10848-9.09824h53.46304l-17.05984-17.07008a8.89856 8.89856 0 0 1 0-12.50304 8.89856 8.89856 0 0 1 12.50816 0l31.86176 30.72c1.14688 0 1.14688 1.13152 1.14688 1.13152v2.2784c1.13152-0.03072 1.13152-0.03072 1.13152 1.11104 0-1.14176 0 0 0 0z" fill="#43A683" p-id="11282"></path></svg>