<?xml version="1.0" standalone="no"?><!DOCTYPE svg PUBLIC "-//W3C//DTD SVG 1.1//EN" "http://www.w3.org/Graphics/SVG/1.1/DTD/svg11.dtd"><svg t="1575599498940" class="icon" viewBox="0 0 1024 1024" version="1.1" xmlns="http://www.w3.org/2000/svg" p-id="6917" xmlns:xlink="http://www.w3.org/1999/xlink" width="128" height="128"><defs><style type="text/css"></style></defs><path d="M768 703.9c-51 0-92.4 41.3-92.4 92.4 0 51 41.4 92.4 92.4 92.4 51 0 92.4-41.4 92.4-92.4 0-51-41.4-92.4-92.4-92.4zM312.9 703.9c-51.1 0-92.4 41.4-92.4 92.4 0 51 41.4 92.4 92.4 92.4 51 0 92.4-41.4 92.4-92.4 0-51-41.4-92.4-92.4-92.4z" fill="#FF5B5B" p-id="6918"></path><path d="M931.5 473.2l-83.2-149.9c-17-20.7-28.5-37.7-55.9-37.7H662.1V172.7c0-20.7-16.7-37.7-37.2-37.7H101.2C80.7 135 64 152 64 172.7v564.7c0 20.8 16.7 37.6 37.2 37.7h74.4c9.2-64.9 63.9-115.1 130.6-115.1 66.7 0 121.5 50.2 130.6 115.1h187.9c9.2-64.9 63.9-115.1 130.6-115.1s121.5 50.1 130.6 115h37c9.8 0 19.3-3.9 26.2-10.9 7-7 10.9-16.6 10.9-26.5V549.2c0-35.7-28.5-76-28.5-76z m-241.7 74.2V362.6h91.5c6 0 14.4 8.8 14.4 8.8L874.4 516c6.9 10.2 14.5 22.2 14.5 31.4H689.8z" fill="#FF5B5B" p-id="6919"></path></svg>