<?xml version="1.0" standalone="no"?><!DOCTYPE svg PUBLIC "-//W3C//DTD SVG 1.1//EN" "http://www.w3.org/Graphics/SVG/1.1/DTD/svg11.dtd"><svg t="1575959873897" class="icon" viewBox="0 0 1024 1024" version="1.1" xmlns="http://www.w3.org/2000/svg" p-id="1904" xmlns:xlink="http://www.w3.org/1999/xlink" width="128" height="128"><defs><style type="text/css"></style></defs><path d="M908.3 1023.8H120.1c-58.7 0-106.5-47.8-106.5-106.5V319.6c0-58.7 47.8-106.5 106.5-106.5h788.2c58.7 0 106.5 47.8 106.5 106.5v597.7c0 58.7-47.8 106.5-106.5 106.5zM120.1 273.1c-25.6 0-46.5 20.9-46.5 46.5v597.7c0 25.6 20.9 46.5 46.5 46.5h788.2c25.6 0 46.5-20.9 46.5-46.5V319.6c0-25.6-20.9-46.5-46.5-46.5H120.1z" p-id="1905" fill="#d4237a"></path><path d="M367 270.8l-130.4-225c-8.2-14.4-3.1-32.7 11.3-40.9 14.4-8.2 32.7-3.1 40.9 11.3l130.4 224.9-52.2 29.7zM638.5 270.8l-52.2-29.6 130.4-225c8.2-14.4 26.5-19.5 40.9-11.3 14.4 8.2 19.5 26.5 11.3 40.9l-130.4 225zM399.5 818.5c-12.1 0-24.2-3.4-34.9-10-19.6-12.2-31.3-33.2-31.3-56.3V468.6c0-22.8 11.5-43.7 30.7-55.9s43-13.8 63.6-4.1l1.1 0.5 260.1 134.5c23.6 12.2 38.3 36.3 38.3 62.8 0 25.9-14.1 49.6-36.8 62.1L429.5 811.3l-0.6 0.3c-9.3 4.6-19.3 6.9-29.4 6.9z m0.1-356.2c-1.4 0-2.5 0.5-3.3 1-1.3 0.8-2.9 2.4-2.9 5.3v283.6c0 2.9 1.6 4.5 3 5.3 1.3 0.8 3.3 1.5 5.7 0.5l259.5-142.1c3.4-1.9 5.6-5.5 5.6-9.4 0-4-2.2-7.7-5.8-9.5L401.9 462.7c-0.8-0.3-1.6-0.4-2.3-0.4z" p-id="1906" fill="#d4237a"></path></svg>