<?xml version="1.0" standalone="no"?><!DOCTYPE svg PUBLIC "-//W3C//DTD SVG 1.1//EN" "http://www.w3.org/Graphics/SVG/1.1/DTD/svg11.dtd"><svg t="1574492321442" class="icon" viewBox="0 0 1024 1024" version="1.1" xmlns="http://www.w3.org/2000/svg" p-id="3338" xmlns:xlink="http://www.w3.org/1999/xlink" width="200" height="200"><defs><style type="text/css"></style></defs><path d="M865.911467 432.565333 859.6608 426.165333 838.946133 404.981333C838.583467 404.597333 531.810133 97.248 531.810133 97.248 515.7248 81.12 488.418133 81.397333 472.866133 97.888L173.559467 414.901333 48.7808 542.517333C40.631467 550.858667 40.631467 564.341333 48.7808 572.682667 52.855467 576.842667 58.1888 578.933333 63.522133 578.933333 68.8768 578.933333 74.210133 576.842667 78.2848 572.682667L156.706133 492.469333 156.706133 886.453333C156.706133 921.845333 184.802133 950.666667 219.319467 950.666667L405.346133 950.666667 405.346133 677.472 618.679467 677.472 618.679467 950.666667 803.298133 950.666667C837.815467 950.666667 865.911467 921.845333 865.911467 886.453333L865.911467 492.896 942.199467 570.912C946.274133 575.072 951.607467 577.162667 956.962133 577.162667 962.295467 577.162667 967.6288 575.072 971.703467 570.912 979.8528 562.570667 979.8528 549.088 971.703467 540.746667L865.911467 432.565333Z" p-id="3339"></path></svg>