<?xml version="1.0" standalone="no"?><!DOCTYPE svg PUBLIC "-//W3C//DTD SVG 1.1//EN" "http://www.w3.org/Graphics/SVG/1.1/DTD/svg11.dtd"><svg t="1574492418236" class="icon" viewBox="0 0 1024 1024" version="1.1" xmlns="http://www.w3.org/2000/svg" p-id="5578" xmlns:xlink="http://www.w3.org/1999/xlink" width="200" height="200"><defs><style type="text/css"></style></defs><path d="M341.332992 853.332992m-56.889344 0a56.889344 56.889344 0 1 0 113.778688 0 56.889344 56.889344 0 1 0-113.778688 0Z" fill="#323233" p-id="5579"></path><path d="M739.555328 853.332992m-56.889344 0a56.889344 56.889344 0 1 0 113.778688 0 56.889344 56.889344 0 1 0-113.778688 0Z" fill="#323233" p-id="5580"></path><path d="M225.845248 227.909632h639.65184c5.070848 0 10.13248 0.452608 15.122432 1.35168 46.383104 8.351744 77.212672 52.722688 68.860928 99.104768l-61.45024 341.262336c-7.318528 40.641536-42.687488 70.21056-83.98336 70.21056h-500.65408c-43.367424 0-79.838208-32.52736-84.779008-75.61216L164.919296 195.958784c-1.646592-14.3616-13.80352-25.203712-28.259328-25.203712H56.889344c-15.710208 0-28.444672-12.735488-28.444672-28.444672S41.179136 113.865728 56.889344 113.865728h79.770624c43.367424 0 79.838208 32.52736 84.777984 75.61216l4.407296 38.431744z" fill="#323233" p-id="5581"></path></svg>