<?xml version="1.0" standalone="no"?><!DOCTYPE svg PUBLIC "-//W3C//DTD SVG 1.1//EN" "http://www.w3.org/Graphics/SVG/1.1/DTD/svg11.dtd"><svg t="1575105707207" class="icon" viewBox="0 0 1024 1024" version="1.1" xmlns="http://www.w3.org/2000/svg" p-id="1931" xmlns:xlink="http://www.w3.org/1999/xlink" width="128" height="128"><defs><style type="text/css"></style></defs><path d="M512.021 65.661c-247 0-447.185 200.206-447.185 447.185S265.02 960.031 512.021 960.031c246.955 0 447.186-200.206 447.186-447.185S758.977 65.661 512.02 65.661zM748.28 396.334L462.237 682.397c-9.257 9.236-24.194 9.28-33.539-0.087-0.021 0-0.044-0.022-0.044-0.022L260.567 514.2c-9.323-9.323-9.389-24.325-0.044-33.67 9.28-9.302 24.477-9.17 33.67 0.022L445.51 631.869l269.142-269.162c9.258-9.236 24.192-9.258 33.538 0.088 9.302 9.302 9.259 24.412 0.089 33.539z" fill="#d4237a" p-id="1932"></path></svg>